<?xml version="1.0" standalone="no"?>
<!DOCTYPE svg PUBLIC "-//W3C//DTD SVG 20010904//EN"
 "http://www.w3.org/TR/2001/REC-SVG-20010904/DTD/svg10.dtd">
<svg version="1.0" xmlns="http://www.w3.org/2000/svg"
 width="900.000000pt" height="573.000000pt" viewBox="0 0 900.000000 573.000000"
 preserveAspectRatio="xMidYMid meet">
<metadata>
Created by potrace 1.10, written by Peter Selinger 2001-2011
</metadata>
<g transform="translate(0.000000,573.000000) scale(0.100000,-0.100000)"
fill="#183f69" stroke="none">
<path d="M30 5716 c0 -8 -7 -16 -15 -20 -13 -4 -15 -35 -15 -189 l0 -185 37
-28 c51 -38 183 -170 218 -217 15 -20 39 -40 54 -44 14 -3 35 -12 46 -19 11
-8 29 -14 40 -14 12 0 26 -5 31 -10 6 -6 33 -15 60 -20 27 -5 67 -13 89 -19
22 -6 72 -11 110 -11 58 0 80 5 130 30 47 23 73 30 122 30 54 0 114 -18 133
-41 5 -6 17 -13 107 -59 26 -14 51 -29 54 -33 12 -17 118 -38 219 -44 62 -3
113 -11 125 -19 11 -8 29 -14 41 -14 12 0 35 -7 50 -15 16 -8 38 -15 49 -15
11 0 29 -7 39 -15 11 -8 30 -15 43 -15 13 0 23 -4 23 -9 0 -5 12 -14 28 -20
15 -6 45 -22 67 -35 22 -14 71 -32 110 -42 51 -13 79 -26 107 -52 39 -36 78
-104 78 -138 0 -18 40 -64 56 -64 4 0 16 -8 26 -17 18 -16 56 -17 461 -14 364
2 445 5 458 17 8 8 19 14 23 14 4 0 33 20 65 44 85 66 117 76 235 76 80 0 107
4 126 17 19 14 46 18 120 18 90 0 97 2 125 28 16 15 40 27 52 27 13 0 45 22
80 58 32 31 78 67 103 80 25 13 92 47 148 77 57 29 115 56 128 59 13 4 24 11
24 16 0 6 7 10 16 10 9 0 28 6 42 13 15 8 45 22 67 31 22 10 53 24 68 32 16 8
36 14 46 14 9 0 26 7 37 15 10 8 28 15 40 15 11 0 29 7 40 15 10 8 28 15 40
15 11 0 29 7 40 15 10 8 30 15 44 15 14 0 38 7 54 15 15 8 40 15 55 15 15 0
36 7 47 15 10 8 33 15 50 15 17 0 51 7 75 16 32 11 88 16 204 18 127 1 165 5
185 18 78 51 162 97 210 117 30 12 64 26 75 30 64 26 141 41 216 41 47 0 89
-4 94 -9 34 -30 200 -32 296 -3 78 23 174 56 193 66 97 53 164 120 199 200 29
67 23 72 -84 78 -69 4 -96 10 -104 22 -20 26 -25 19 -25 -36 0 -71 -16 -97
-78 -134 -65 -40 -155 -52 -423 -61 -172 -5 -201 -4 -242 12 -25 9 -54 26 -64
37 -22 25 -22 86 2 121 16 26 16 26 -7 31 -12 3 -126 7 -253 9 -223 4 -271 9
-259 28 3 5 -51 9 -126 9 -72 0 -129 -4 -126 -8 6 -10 -4 -24 -26 -37 -18 -11
-200 -134 -328 -222 -47 -32 -86 -61 -88 -65 -2 -5 -8 -8 -13 -8 -9 0 -65 -36
-79 -50 -5 -5 -100 -70 -295 -202 -231 -156 -270 -183 -275 -188 -3 -3 -22
-16 -42 -29 l-37 -22 -518 6 c-396 5 -534 10 -588 21 -75 16 -168 35 -292 60
-43 8 -99 20 -125 25 -26 6 -71 14 -100 19 -73 11 -172 28 -243 41 -33 6 -90
15 -126 19 -59 7 -141 39 -271 106 -14 8 -33 14 -41 14 -8 0 -28 7 -43 15 -16
8 -36 15 -44 15 -8 0 -35 7 -60 16 -27 10 -93 17 -169 20 -119 4 -127 6 -205
43 -45 21 -108 46 -141 56 -71 20 -102 32 -217 90 -123 61 -192 110 -246 171
l-46 54 -125 1 c-165 2 -247 10 -243 27 1 6 -5 12 -13 12 -8 0 -15 -6 -15 -14z"/>
<path d="M5231 5105 c-18 -8 -50 -15 -70 -15 -20 -1 -47 -7 -61 -15 -14 -8
-39 -14 -56 -15 -16 0 -39 -7 -50 -15 -10 -8 -30 -15 -44 -15 -14 0 -34 -6
-45 -14 -11 -7 -31 -16 -45 -19 -27 -6 -100 -31 -140 -48 -53 -23 -96 -41
-125 -53 -28 -12 -56 -24 -143 -62 -20 -9 -44 -20 -52 -25 -8 -5 -22 -12 -30
-15 -35 -13 -119 -56 -165 -84 -27 -16 -61 -35 -75 -40 -13 -6 -47 -36 -75
-66 -30 -32 -59 -54 -72 -54 -22 0 -67 -31 -96 -67 -21 -27 -39 -29 -57 -8
-17 21 -128 20 -158 0 -16 -12 -51 -17 -129 -18 -87 -2 -114 -6 -136 -21 -22
-15 -25 -21 -16 -33 9 -10 26 -12 70 -7 56 6 59 5 68 -18 10 -26 67 -68 93
-68 8 0 34 -18 58 -40 39 -36 42 -42 37 -77 -5 -27 -17 -48 -44 -71 -53 -46
-61 -52 -72 -52 -22 0 -41 -33 -41 -70 0 -37 34 -121 52 -128 4 -2 8 -16 8
-30 0 -19 -17 -45 -57 -86 -64 -66 -93 -114 -93 -150 0 -14 -4 -28 -10 -31 -5
-3 -10 -19 -10 -35 0 -36 33 -50 59 -26 10 9 22 16 28 16 6 0 16 7 23 15 17
21 196 21 237 0 15 -7 49 -24 76 -35 26 -12 47 -23 47 -25 0 -3 -27 -37 -60
-76 l-61 -72 22 -24 c26 -26 32 -28 51 -10 7 7 24 19 38 28 22 15 28 15 48 1
18 -12 22 -24 22 -63 0 -56 14 -99 33 -99 14 0 57 -52 57 -70 0 -20 19 -9 50
30 37 47 60 50 162 24 76 -20 196 -14 246 11 71 37 104 138 67 209 -22 42 -19
64 16 108 19 23 32 52 33 71 1 28 6 33 36 38 102 20 182 69 228 139 26 40 30
54 30 123 2 90 4 97 38 97 19 0 24 -5 24 -24 0 -32 19 -44 35 -23 7 10 19 17
27 17 9 0 21 7 28 15 7 8 20 15 29 15 10 0 26 7 37 15 10 8 28 15 40 15 11 0
29 7 40 15 27 20 167 21 184 0 7 -8 20 -15 29 -15 17 0 77 -53 98 -86 7 -10
22 -40 34 -66 12 -27 22 -48 24 -48 9 0 132 66 137 74 4 6 8 28 8 50 0 34 7
45 54 91 31 29 58 65 61 81 4 16 13 43 21 61 8 17 14 40 14 52 0 12 5 21 10
21 6 0 10 9 10 20 0 15 -7 20 -25 20 -37 0 -132 49 -160 82 -51 61 -25 152 77
263 32 35 58 66 58 70 0 20 -44 96 -71 123 -25 24 -43 32 -88 37 -31 4 -62 8
-69 10 -19 7 -33 52 -43 149 -17 147 -3 136 -181 136 -111 -1 -162 -5 -187
-15z"/>
<path d="M249 4994 c-8 -10 -15 -52 -17 -109 -4 -75 0 -106 17 -162 23 -74 92
-200 135 -246 31 -34 32 -55 6 -106 -20 -39 -57 -61 -106 -61 -24 0 -54 -24
-92 -74 -18 -24 -22 -42 -22 -107 0 -52 -6 -90 -16 -113 -19 -40 -14 -71 18
-106 13 -14 48 -56 78 -95 30 -38 65 -81 78 -95 39 -43 39 -61 -2 -95 -40 -33
-44 -51 -20 -97 13 -26 14 -35 3 -55 -16 -31 -166 -173 -247 -235 l-62 -48 0
-56 c0 -48 5 -62 32 -98 18 -22 35 -43 38 -46 3 -3 34 -41 68 -86 l62 -81 0
-86 c0 -75 3 -88 19 -97 11 -5 27 -10 36 -10 9 0 43 -13 76 -30 l60 -29 33 52
c74 114 139 135 165 54 7 -19 23 -45 37 -58 22 -21 35 -24 97 -23 70 1 118 16
149 47 7 8 45 49 83 92 39 43 104 104 145 136 129 101 133 104 125 128 -14 45
-78 131 -98 131 -11 0 -46 -18 -79 -40 -38 -25 -72 -40 -92 -40 -17 0 -44 -7
-60 -15 -36 -19 -90 -19 -106 0 -7 8 -18 15 -26 15 -24 0 -32 33 -26 113 4 71
7 80 31 95 14 9 28 19 31 22 3 3 27 16 53 30 70 36 87 46 100 59 6 6 39 11 74
11 71 0 83 11 65 58 -6 15 -13 38 -16 52 -3 14 -27 47 -53 73 l-47 48 0 92 -1
91 -42 20 c-34 17 -42 26 -43 48 0 15 4 29 9 32 24 15 51 90 51 140 0 42 -5
57 -23 75 l-24 22 -42 -46 c-23 -25 -45 -45 -49 -45 -22 0 -45 87 -47 174 -1
87 -2 92 -28 106 -53 30 -48 150 10 238 28 42 40 52 62 52 16 0 37 10 50 24
27 29 21 45 -52 122 -46 48 -48 53 -45 100 l3 49 -110 5 c-60 3 -116 9 -123
13 -6 5 -33 12 -60 17 -50 8 -92 22 -158 52 -49 22 -48 22 -65 2z"/>
<path d="M866 4955 c-8 -8 -19 -15 -25 -15 -23 0 -41 -33 -41 -78 0 -41 5 -52
43 -92 23 -25 51 -62 61 -83 l19 -38 -33 -34 c-18 -19 -44 -35 -59 -37 -16 -2
-37 -19 -58 -46 -28 -38 -33 -51 -33 -100 0 -66 6 -79 40 -83 24 -4 24 -5 25
-118 0 -126 8 -141 48 -97 32 35 67 33 103 -5 26 -27 29 -37 28 -94 0 -60 -25
-134 -46 -143 -22 -10 19 -62 47 -62 21 0 43 -43 34 -65 -4 -11 -8 -45 -8 -75
-1 -51 2 -58 40 -100 60 -65 68 -80 80 -144 16 -88 10 -96 -69 -96 -53 -1 -75
-6 -107 -25 -22 -14 -51 -30 -65 -36 -13 -5 -27 -13 -30 -17 -3 -4 -23 -17
-45 -28 -40 -22 -40 -22 -43 -87 -3 -63 -2 -65 30 -85 29 -19 35 -19 66 -6 19
8 48 14 65 14 25 0 90 30 107 50 16 19 64 40 89 40 28 0 36 -7 78 -66 21 -28
34 -51 39 -66 9 -26 37 -22 67 10 56 58 214 115 352 127 111 9 141 19 208 64
32 22 71 42 87 46 29 6 40 28 20 40 -5 3 -10 16 -10 29 0 12 -7 31 -15 42 -8
10 -15 28 -15 40 0 11 -7 29 -15 40 -19 25 -19 98 0 114 8 7 15 18 15 25 0 7
6 18 14 24 27 22 26 62 -3 91 -40 42 -62 49 -123 43 -53 -5 -56 -4 -91 31 -21
20 -37 44 -37 52 0 9 -6 28 -13 42 -8 15 -22 45 -31 67 -10 22 -24 53 -32 68
-18 37 -18 91 1 107 8 7 15 21 15 31 0 11 4 19 8 19 15 0 44 81 37 103 -22 74
-24 92 -9 115 9 14 25 22 42 22 15 0 39 7 55 15 23 12 32 12 55 1 104 -51 329
-64 346 -19 7 18 -26 75 -69 119 -22 23 -43 33 -78 38 -53 8 -88 23 -162 67
-27 16 -61 35 -75 40 -14 6 -37 17 -52 25 -14 8 -37 14 -50 14 -12 0 -32 7
-42 15 -11 8 -31 15 -45 15 -14 0 -35 7 -45 15 -14 11 -47 15 -115 15 -53 0
-114 5 -136 11 -40 11 -126 49 -135 60 -5 6 -17 12 -107 59 -26 14 -54 31 -61
38 -19 17 -117 16 -136 -3z"/>
<path d="M1752 4403 c-44 -6 -62 -41 -38 -77 17 -26 22 -82 8 -88 -4 -1 -25
-37 -46 -78 -37 -73 -37 -76 -22 -108 8 -18 23 -49 32 -70 8 -20 22 -50 30
-65 8 -16 14 -34 14 -41 0 -20 43 -62 70 -69 14 -4 35 0 51 10 26 16 29 16 47
0 10 -9 21 -17 25 -17 11 0 75 -64 86 -87 12 -24 1 -57 -39 -118 -32 -49 -34
-55 -16 -91 9 -19 16 -43 16 -52 0 -10 7 -27 15 -38 8 -10 15 -27 15 -37 0
-11 6 -31 14 -45 8 -15 17 -34 19 -43 6 -19 92 -49 142 -49 45 0 107 31 129
64 9 14 26 56 39 93 25 77 20 75 137 55 36 -7 124 -12 197 -12 127 0 133 -1
162 -26 42 -35 55 -89 41 -162 -6 -31 -19 -72 -28 -90 -17 -33 -17 -34 11 -58
55 -47 97 -22 97 57 0 28 -4 58 -10 68 -10 20 12 61 34 61 15 0 126 113 126
129 0 18 -151 81 -195 81 -32 0 -45 20 -45 70 0 41 -4 49 -47 87 -46 41 -46
42 -30 67 21 31 22 76 2 102 -8 10 -15 33 -15 49 0 17 -7 41 -15 55 -10 18
-14 60 -15 142 0 115 1 119 31 169 20 32 28 54 22 60 -6 6 -90 6 -230 -1 -225
-10 -266 -6 -304 26 -8 8 -20 14 -26 14 -5 0 -18 9 -29 21 -13 15 -25 18 -44
14 -48 -13 -255 -6 -286 9 -35 17 -87 25 -132 19z"/>
<path d="M3326 4391 c-3 -5 -30 -25 -60 -45 l-54 -36 -162 0 -162 0 -39 -39
c-22 -21 -39 -44 -39 -50 0 -7 -7 -23 -16 -36 -13 -20 -16 -45 -12 -125 2 -60
9 -105 16 -112 7 -7 12 -26 12 -42 1 -17 7 -42 15 -56 9 -15 14 -53 15 -95 0
-66 2 -71 30 -90 27 -18 30 -25 30 -72 0 -49 2 -53 28 -58 50 -11 137 -40 148
-50 6 -5 27 -19 48 -30 35 -19 38 -19 67 -2 17 9 41 17 53 17 12 0 30 6 41 14
11 7 32 16 47 20 42 10 96 69 103 113 9 53 30 89 92 155 49 53 67 88 43 88 -5
0 -10 8 -10 19 0 10 -7 24 -15 31 -12 10 -15 30 -13 88 3 74 3 75 37 93 114
61 140 119 74 164 -21 14 -44 25 -51 25 -18 0 -64 31 -85 57 -15 19 -24 22
-62 16 -38 -5 -50 -2 -79 21 -19 14 -37 22 -40 17z"/>
<path d="M5951 4206 c-12 -18 -21 -42 -21 -52 0 -11 -7 -28 -15 -38 -8 -11
-15 -29 -15 -40 0 -39 -35 -92 -78 -119 -41 -26 -43 -29 -41 -72 3 -50 -16
-77 -64 -89 -15 -3 -27 -11 -27 -16 0 -6 -8 -10 -18 -10 -32 0 -74 -54 -75
-97 -1 -35 28 -94 58 -115 13 -10 8 -237 -7 -265 -8 -17 -8 -29 3 -50 29 -56
81 -133 91 -133 5 0 8 -10 6 -22 -2 -18 -10 -23 -38 -25 -19 -1 -50 3 -68 8
-26 9 -38 8 -58 -6 -27 -17 -74 -110 -74 -147 0 -13 -7 -32 -15 -42 -8 -11
-15 -29 -15 -40 0 -11 -38 -58 -91 -113 -50 -51 -89 -98 -86 -105 3 -9 26 -12
81 -11 87 2 91 -4 56 -70 -11 -20 -20 -45 -20 -55 0 -10 -4 -22 -9 -28 -16
-17 -81 -143 -81 -157 0 -8 -7 -28 -15 -43 -21 -40 -19 -55 10 -83 21 -19 32
-22 63 -18 64 10 101 -4 145 -55 37 -45 40 -51 38 -109 -1 -43 3 -67 14 -79
14 -16 12 -19 -26 -46 -49 -34 -65 -68 -48 -101 7 -12 22 -25 33 -29 25 -7 84
-31 108 -44 30 -17 38 -11 38 27 0 53 37 123 73 138 33 14 100 3 128 -21 8 -8
29 -16 45 -20 26 -5 34 -1 55 26 13 17 32 41 42 52 9 12 17 24 17 27 0 3 14
21 30 40 17 19 33 46 36 60 10 49 24 71 43 71 11 0 23 -5 26 -10 7 -12 45 -14
45 -2 0 4 16 16 36 27 50 27 77 68 71 108 -15 87 -24 124 -37 147 -7 14 -16
32 -20 40 -4 8 -21 18 -38 22 -40 11 -90 62 -109 113 -8 22 -19 69 -23 105 -5
36 -14 79 -21 97 -11 26 -10 34 1 48 42 51 162 71 236 40 20 -8 40 -12 45 -9
15 9 10 118 -6 140 -10 13 -14 44 -15 95 0 71 2 77 31 107 41 42 73 50 111 28
27 -16 31 -16 53 -2 13 9 39 16 58 16 48 0 73 20 58 48 -6 11 -11 33 -11 49
-1 15 -7 39 -15 53 -8 14 -14 45 -14 70 0 37 4 48 25 63 13 10 37 17 52 16 44
-5 52 6 45 59 -3 26 -13 59 -22 75 -13 22 -13 31 -3 47 18 30 15 42 -26 85
-48 53 -72 99 -72 139 0 41 -21 61 -80 74 -93 23 -136 38 -175 62 -22 13 -44
27 -50 30 -5 3 -35 21 -65 41 -65 43 -241 129 -263 129 -8 0 -25 -15 -36 -34z"/>
<path d="M5264 3965 c-10 -8 -30 -15 -42 -15 -21 0 -43 -9 -102 -41 -8 -4 -38
-19 -66 -33 -48 -24 -84 -69 -84 -106 0 -27 -69 -114 -117 -146 -28 -18 -56
-34 -61 -34 -5 0 -30 -9 -55 -20 -36 -16 -48 -28 -57 -55 -6 -19 -15 -35 -19
-35 -4 0 -17 -14 -30 -31 -21 -28 -21 -32 -7 -54 11 -16 16 -47 16 -90 0 -53
-5 -73 -25 -105 -14 -22 -34 -46 -45 -52 -26 -16 -25 -20 5 -54 14 -16 33 -45
43 -64 14 -29 23 -35 54 -38 29 -3 49 -14 87 -51 28 -27 53 -61 56 -75 3 -14
7 -37 10 -50 3 -14 19 -38 36 -55 26 -27 33 -29 52 -18 12 6 25 15 28 20 9 12
82 47 99 47 9 0 26 7 38 16 27 19 39 13 47 -26 4 -16 11 -32 16 -35 5 -4 9
-14 9 -23 0 -9 14 -32 31 -49 22 -25 39 -33 63 -33 29 0 45 12 117 86 46 47
85 93 87 102 2 9 10 31 18 49 8 17 14 42 14 55 0 12 7 32 15 42 8 11 15 26 15
34 0 9 18 32 40 54 41 38 51 40 109 22 35 -11 23 44 -19 86 -7 7 -29 42 -37
59 -3 7 1 34 11 60 10 29 16 77 16 132 0 80 -2 89 -30 127 -16 23 -30 45 -30
49 0 3 -7 14 -15 23 -14 16 -14 21 1 51 10 19 21 42 26 52 6 13 2 25 -17 45
-14 15 -25 33 -25 40 0 31 -82 121 -111 122 -9 0 -22 7 -29 15 -17 20 -109 20
-136 0z"/>
<path d="M6775 3926 c-19 -28 -31 -28 -87 -1 -30 15 -38 11 -38 -19 1 -36 94
-166 120 -166 16 0 12 -52 -6 -65 -13 -9 -14 -16 -6 -31 22 -40 34 -132 21
-156 -17 -32 -29 -38 -65 -32 -21 4 -36 1 -47 -11 -21 -20 -21 -32 -2 -69 8
-15 15 -39 15 -52 0 -14 7 -41 15 -61 29 -69 13 -93 -62 -93 -22 0 -48 -7 -59
-15 -24 -18 -57 -19 -102 -3 -32 12 -35 11 -63 -20 -23 -26 -29 -42 -29 -78 0
-25 6 -57 14 -72 20 -39 30 -141 17 -176 -11 -27 -14 -28 -59 -22 -142 18
-169 18 -200 2 -31 -16 -40 -35 -24 -50 4 -4 12 -40 19 -79 6 -40 15 -85 18
-102 10 -43 73 -105 105 -105 27 0 32 -7 65 -85 18 -45 36 -114 42 -165 5 -38
14 -53 64 -103 l59 -58 0 -93 c0 -77 3 -96 18 -109 10 -10 24 -17 30 -17 6 0
26 -18 44 -40 17 -23 43 -46 57 -53 30 -15 50 -79 60 -196 8 -92 9 -93 94
-137 59 -29 81 -30 115 -3 52 40 80 142 47 169 -8 7 -15 23 -15 35 0 12 7 28
15 35 8 7 15 23 15 35 0 29 28 83 55 107 11 9 33 17 48 18 16 0 47 15 73 34
25 19 50 36 56 38 7 3 14 41 17 90 5 68 11 93 29 117 23 32 28 56 13 65 -5 4
-19 26 -30 49 -27 55 -29 155 -4 195 25 40 85 102 100 102 16 0 33 32 33 64 0
14 4 27 9 30 5 3 12 18 16 33 12 49 53 83 101 83 23 0 47 -6 53 -14 16 -19 42
-25 69 -15 20 8 22 15 22 79 0 40 -6 86 -15 107 -8 19 -15 50 -15 67 0 18 -7
41 -15 52 -19 25 -19 54 0 54 18 0 45 -50 45 -85 0 -14 7 -42 15 -62 22 -53
21 -215 -2 -235 -33 -29 -58 -29 -107 -3 -26 14 -53 25 -60 25 -15 0 -56 -42
-56 -57 0 -6 -7 -24 -15 -39 -8 -16 -15 -41 -15 -56 0 -21 -12 -36 -54 -68
-95 -72 -121 -163 -71 -245 59 -97 58 -90 28 -126 -20 -24 -27 -43 -27 -78 -1
-39 2 -46 20 -49 11 -2 27 4 34 13 14 17 75 21 85 5 3 -5 21 -10 40 -10 19 0
37 5 40 10 3 6 15 10 27 10 11 0 34 6 51 14 18 8 63 16 100 19 83 6 104 22
112 86 3 25 13 58 21 73 8 14 14 36 14 47 0 12 8 25 18 28 36 14 42 35 36 118
l-6 81 43 34 c23 19 51 44 61 54 23 25 33 78 19 104 -7 13 -8 29 -2 44 9 24
15 83 12 129 -2 40 -41 60 -125 66 -39 3 -76 9 -83 14 -6 6 -15 29 -18 52 -10
56 -18 70 -65 107 l-40 32 -36 -17 c-56 -26 -75 -12 -103 76 -13 41 -28 78
-32 84 -5 5 -9 15 -9 23 0 8 -6 28 -14 45 -7 18 -24 57 -36 87 -41 102 -88
191 -128 247 -29 41 -139 81 -173 62 -26 -14 -89 2 -110 28 -13 15 -32 81 -47
168 -9 48 -30 60 -124 70 -64 7 -67 6 -83 -19z"/>
<path d="M3575 3512 c-16 -10 -42 -25 -56 -35 -30 -20 -74 -15 -83 9 -7 18
-41 18 -60 -1 -8 -8 -23 -15 -33 -15 -11 0 -28 -7 -39 -15 -10 -8 -28 -15 -40
-15 -11 0 -29 -7 -40 -15 -10 -8 -28 -15 -40 -15 -13 0 -55 -34 -107 -86 l-87
-86 0 -71 c-1 -92 -18 -117 -81 -117 -26 0 -50 7 -62 17 -18 17 -20 17 -43
-12 -13 -17 -24 -34 -24 -38 0 -10 -114 -161 -148 -197 -33 -35 -49 -76 -57
-147 l-7 -61 49 -22 c48 -20 51 -24 63 -76 8 -32 22 -61 33 -69 20 -14 29 -10
112 43 11 6 31 17 45 23 13 5 27 13 30 17 3 4 25 17 50 30 25 13 72 39 105 57
33 19 71 39 85 45 13 6 27 14 30 18 3 4 27 18 53 32 90 46 102 53 107 59 3 3
28 17 55 30 28 14 52 27 55 30 37 43 220 59 253 23 22 -24 22 -99 1 -123 -18
-20 -11 -39 14 -39 9 0 26 -7 36 -15 11 -8 29 -15 40 -15 12 0 30 -7 40 -15
11 -8 28 -15 37 -15 10 0 31 -8 47 -17 29 -17 31 -17 70 11 42 29 54 28 104
-13 10 -7 24 -11 32 -8 12 5 15 23 13 91 -3 111 4 119 116 127 117 10 137 17
180 62 l38 39 -3 92 -3 91 -85 2 c-47 2 -109 10 -138 20 l-53 17 -25 -29 c-91
-108 -114 -119 -114 -56 0 35 -6 44 -45 76 -42 35 -44 39 -47 98 -2 34 -8 62
-14 64 -7 2 -29 -12 -50 -31 l-39 -36 -42 48 c-24 26 -43 52 -43 58 0 14 36
62 71 93 32 28 28 58 -9 68 -14 3 -37 12 -51 19 -38 20 -159 17 -196 -4z"/>
<path d="M4495 3008 c-1 -100 -15 -137 -66 -175 -37 -28 -127 -53 -199 -56
l-65 -2 -3 -102 -3 -103 -40 0 c-23 0 -47 7 -55 15 -18 18 -55 20 -72 3 -7 -7
-12 -31 -12 -54 0 -25 -6 -47 -15 -54 -8 -7 -15 -27 -15 -45 0 -26 9 -41 44
-71 24 -22 54 -58 65 -80 25 -47 48 -70 75 -75 34 -7 42 -34 18 -64 -22 -28
-30 -98 -14 -120 9 -13 63 -50 84 -58 17 -6 107 36 120 56 4 7 18 6 45 -6 21
-9 56 -15 79 -14 36 1 45 -3 75 -36 19 -21 46 -59 59 -85 42 -78 52 -86 128
-90 55 -3 72 -9 95 -30 42 -40 38 -90 -10 -134 -116 -105 -173 -192 -173 -264
0 -46 14 -68 67 -105 13 -9 26 -30 29 -47 5 -25 1 -34 -22 -54 -60 -49 -120
-117 -160 -178 -43 -67 -53 -84 -59 -100 -4 -8 -13 -27 -21 -42 -8 -15 -14
-54 -14 -91 0 -63 -1 -67 -37 -97 -33 -27 -44 -31 -87 -28 l-48 3 6 -40 c28
-193 38 -223 74 -231 15 -3 44 -12 65 -20 20 -8 48 -14 60 -14 13 0 27 -4 32
-9 15 -14 95 -34 135 -33 19 0 71 5 115 11 80 11 221 6 240 -9 6 -4 21 -11 35
-15 14 -4 41 -20 60 -35 38 -30 76 -48 150 -72 37 -12 46 -20 48 -41 2 -17 19
-40 46 -62 47 -38 67 -43 86 -20 14 17 100 21 100 5 0 -20 27 -9 40 15 18 33
63 61 126 78 62 16 140 65 186 117 34 37 40 40 91 40 47 0 55 3 65 24 13 28
47 42 66 27 10 -8 20 -5 39 13 48 44 71 56 111 56 31 0 47 -7 73 -32 31 -30
34 -31 51 -15 11 10 45 20 81 23 l62 7 -3 106 c-3 120 7 111 -102 91 -77 -14
-84 -7 -66 62 8 29 14 94 15 143 1 83 3 94 33 141 37 60 40 84 12 122 -16 22
-19 36 -14 72 7 49 23 75 66 103 33 21 99 22 137 3 24 -13 31 -13 57 0 16 8
37 25 48 36 16 18 18 25 8 50 -6 16 -8 36 -5 44 3 9 -4 28 -16 44 -16 22 -21
44 -21 89 0 33 -5 72 -11 88 -6 15 -14 46 -18 68 -5 31 -11 41 -29 43 -12 2
-27 12 -33 24 -15 28 -51 68 -61 68 -5 0 -22 10 -38 22 -29 21 -30 24 -30 111
0 48 -5 97 -11 108 -12 23 -80 88 -93 89 -4 0 -25 -13 -46 -30 -21 -16 -42
-30 -48 -30 -5 0 -15 -7 -22 -15 -7 -8 -24 -15 -39 -15 -21 0 -36 -13 -74 -65
-26 -36 -47 -70 -47 -75 0 -6 -4 -10 -10 -10 -5 0 -21 -20 -36 -45 -14 -25
-30 -45 -35 -45 -5 0 -9 -7 -9 -15 0 -8 -8 -15 -17 -15 -20 0 -100 38 -109 51
-3 5 -27 9 -54 9 -49 0 -50 -1 -70 -44 -11 -25 -20 -65 -20 -90 0 -26 -4 -46
-9 -46 -4 0 -31 -23 -60 -51 -49 -50 -63 -81 -41 -94 13 -8 38 -63 59 -130 14
-43 21 -50 49 -56 65 -13 76 -47 45 -143 -39 -121 -106 -219 -179 -262 -16 -9
-17 -15 -7 -36 11 -25 2 -91 -18 -131 -10 -19 -5 -32 41 -101 34 -49 37 -71
15 -112 -8 -16 -15 -40 -15 -53 0 -62 -35 -122 -113 -197 -43 -41 -80 -74 -83
-74 -3 0 -18 -10 -33 -21 -26 -19 -51 -19 -51 0 0 4 28 28 63 53 125 93 173
158 184 253 3 22 9 44 14 49 21 22 8 59 -43 127 -31 41 -34 65 -13 93 18 24
20 119 3 149 -14 24 -38 88 -38 100 0 11 54 -18 69 -37 19 -22 23 -21 63 19
41 41 98 145 98 178 0 13 5 28 11 34 6 6 9 23 7 39 -3 26 -8 30 -54 38 l-51 9
0 51 c0 48 -5 61 -60 159 -18 31 -16 54 5 75 41 42 72 84 66 93 -3 5 -16 9
-29 9 -13 0 -26 4 -30 9 -3 5 -20 13 -38 17 -36 8 -74 43 -83 78 -7 30 17 78
52 103 24 18 26 23 17 50 -7 18 -7 36 -2 44 18 29 9 64 -29 107 -37 42 -38 42
-108 42 -65 0 -73 2 -98 29 -24 25 -27 35 -24 73 7 59 48 166 76 196 6 7 12
20 12 28 0 8 4 14 9 14 5 0 13 15 16 33 4 17 12 37 17 44 17 21 -1 33 -48 33
-33 0 -54 7 -77 24 -18 14 -45 28 -62 32 -35 9 -85 62 -100 106 -20 63 -54 62
-152 -2 -34 -22 -65 -40 -68 -40 -29 0 -105 92 -105 127 0 18 -28 70 -52 94
-24 25 -53 39 -82 39 -28 0 -76 45 -76 70 0 17 -60 80 -75 80 -6 0 -10 -41
-10 -92z"/>
<path d="M3506 2825 c-8 -8 -21 -15 -29 -15 -8 0 -20 -7 -27 -15 -7 -8 -18
-15 -26 -15 -7 0 -19 -6 -26 -12 -7 -7 -35 -24 -61 -38 -90 -47 -102 -53 -107
-59 -3 -3 -25 -16 -50 -29 -46 -24 -145 -78 -190 -105 -14 -8 -47 -27 -75 -41
-27 -15 -63 -35 -80 -46 -16 -11 -39 -24 -50 -29 -11 -5 -31 -20 -44 -35 -20
-21 -23 -32 -17 -64 8 -51 -4 -60 -79 -64 -87 -4 -86 -25 4 -78 90 -52 151
-110 189 -180 36 -67 66 -188 58 -233 -4 -20 -1 -39 6 -49 14 -16 121 -88 132
-88 4 0 16 9 28 20 26 23 55 25 82 5 25 -19 50 -19 66 0 31 38 106 -3 145 -80
8 -15 22 -21 57 -23 54 -4 88 21 88 63 0 14 5 25 10 25 12 0 13 42 1 55 -5 6
-11 26 -15 45 -5 32 -2 38 36 70 23 19 48 42 57 51 9 8 37 23 64 33 26 10 47
20 47 22 0 3 -7 16 -16 30 -33 49 -2 119 70 156 25 13 33 13 72 -1 39 -14 46
-14 54 -2 11 18 0 40 -46 91 -36 40 -43 67 -19 76 8 3 56 1 107 -4 51 -6 95
-8 97 -6 7 6 -21 64 -31 64 -5 0 -22 15 -39 32 -24 27 -29 41 -29 81 0 27 7
58 16 72 13 20 14 28 5 39 -16 19 -87 56 -109 56 -9 0 -26 7 -36 15 -11 8 -28
15 -37 15 -10 0 -30 7 -46 15 -15 8 -40 17 -55 20 -35 7 -36 28 -3 71 27 35
32 73 13 92 -18 18 -143 16 -162 -3z"/>
<path d="M3870 2226 c0 -13 34 -76 42 -76 14 0 8 -67 -7 -80 -10 -9 -35 -11
-76 -7 -53 5 -63 3 -89 -20 -35 -29 -39 -64 -10 -100 11 -14 20 -32 20 -40 0
-12 -77 -53 -102 -53 -20 0 -108 -75 -114 -98 -4 -13 0 -32 10 -47 18 -27 22
-75 6 -75 -5 0 -14 -17 -20 -37 -17 -61 -28 -69 -106 -76 l-71 -6 -28 45 c-16
25 -41 54 -55 64 l-27 19 -27 -28 -28 -29 -43 30 c-41 29 -65 31 -65 5 0 -7
-9 -30 -20 -52 -11 -22 -20 -45 -20 -51 0 -6 28 -38 63 -71 52 -48 62 -62 53
-76 -8 -12 -5 -23 11 -45 14 -19 18 -33 12 -43 -13 -21 -11 -134 6 -229 8 -47
17 -120 20 -162 8 -90 25 -118 91 -149 74 -35 136 -25 219 36 17 12 54 30 83
40 50 16 56 16 120 -1 68 -18 168 -70 192 -99 7 -9 26 -25 41 -36 27 -19 27
-19 76 2 62 28 140 49 179 49 35 0 74 -32 74 -60 0 -10 3 -21 8 -24 16 -10 94
13 118 34 21 20 24 32 24 89 0 65 12 101 61 176 10 17 22 37 26 45 4 8 14 23
22 32 9 9 36 43 61 76 25 33 54 63 64 68 11 5 24 17 30 27 9 15 6 22 -14 38
-65 50 -70 59 -70 134 1 46 6 77 15 89 8 11 15 27 15 36 0 9 40 57 90 106 49
49 90 96 90 105 0 8 -10 25 -23 37 -19 18 -35 22 -94 22 -82 0 -92 7 -118 75
-10 25 -22 45 -26 45 -5 0 -9 6 -9 13 0 6 -12 25 -27 42 -23 26 -35 30 -97 36
-65 6 -112 -1 -126 -19 -13 -17 -70 -40 -76 -31 -3 6 -16 15 -27 20 -89 40
-97 52 -97 134 0 49 4 75 13 78 8 3 1 14 -18 30 -23 19 -45 26 -105 31 -41 4
-85 10 -97 13 -13 3 -23 3 -23 -1z"/>
<path d="M7854 2193 c-4 -16 -13 -37 -20 -48 -8 -11 -14 -45 -14 -76 0 -77
-16 -90 -123 -100 -81 -7 -122 -17 -184 -47 -20 -9 -46 -13 -67 -9 -38 6 -55
-13 -30 -33 8 -7 14 -20 14 -29 0 -9 11 -28 24 -42 25 -27 62 -34 255 -44 72
-4 80 -8 63 -35 -7 -11 -12 -28 -12 -39 0 -10 -9 -40 -21 -66 -18 -40 -19 -51
-8 -71 7 -14 25 -26 43 -30 18 -3 53 -26 82 -52 27 -26 71 -65 96 -88 47 -42
68 -87 68 -150 0 -28 -39 -100 -61 -115 -5 -3 -5 -18 0 -35 9 -31 -2 -74 -18
-74 -14 0 -44 -59 -37 -75 2 -7 38 -29 78 -50 40 -20 85 -47 99 -61 l27 -25
54 30 c88 50 210 41 300 -22 14 -9 25 -8 55 7 21 10 54 25 73 33 19 8 48 21
63 29 16 8 34 14 41 14 8 0 25 9 40 21 22 18 26 26 20 54 -5 30 -1 37 48 85
85 84 174 160 187 160 7 0 11 19 11 50 0 37 -4 50 -15 50 -8 0 -17 12 -21 28
-12 57 -54 129 -103 177 -51 50 -51 50 -51 115 -1 36 -5 83 -9 105 -5 22 -14
63 -20 92 -6 29 -14 60 -19 70 -5 10 -17 36 -28 58 -42 91 -128 165 -191 165
-16 0 -51 -16 -81 -37 -44 -30 -57 -35 -70 -25 -42 29 -77 43 -120 49 -44 5
-50 3 -94 -36 -25 -23 -53 -41 -61 -41 -9 0 -49 33 -91 73 -129 124 -160 140
-172 90z"/>
<path d="M7328 1909 c-15 -4 -37 -18 -50 -31 -44 -46 -147 -118 -168 -118 -12
0 -30 -4 -40 -10 -27 -15 -60 -73 -60 -108 0 -17 -6 -32 -12 -35 -10 -3 -10
-9 0 -26 32 -55 0 -180 -58 -221 -33 -23 -106 -27 -133 -6 -24 18 -61 9 -51
-13 4 -9 9 -31 12 -48 3 -27 0 -34 -22 -44 -14 -7 -26 -16 -26 -21 0 -4 -7 -8
-15 -8 -9 0 -18 -7 -21 -15 -7 -16 -79 -22 -88 -6 -3 4 -19 11 -36 15 -33 6
-74 -10 -104 -39 -21 -22 -20 -84 2 -108 27 -30 21 -96 -14 -142 -27 -36 -29
-46 -34 -149 -3 -61 -9 -118 -14 -127 -10 -23 30 -32 65 -13 37 19 73 18 90
-2 9 -11 16 -54 19 -118 5 -96 6 -101 28 -104 23 -4 113 25 170 53 17 9 44 33
60 53 15 20 31 39 35 41 5 1 28 18 51 36 24 18 57 36 74 40 44 9 141 -13 178
-41 38 -30 41 -30 69 0 25 27 76 56 100 56 22 0 95 -38 95 -50 0 -16 38 -12
66 7 21 13 30 14 45 5 10 -7 21 -12 23 -12 15 0 66 147 66 191 0 17 9 32 23
42 15 10 29 34 37 64 15 54 52 119 72 126 7 2 32 -9 55 -26 41 -29 63 -29 63
-1 0 8 4 14 9 14 5 0 16 11 25 25 13 20 14 29 4 50 -10 22 -8 30 21 65 36 46
45 79 34 136 -7 35 -21 52 -101 123 -50 44 -101 81 -112 81 -21 0 -115 92
-115 113 0 7 11 13 25 15 19 2 30 13 43 44 26 59 19 68 -57 68 -36 0 -99 5
-141 11 -62 10 -78 16 -86 33 -5 11 -13 28 -18 36 -5 8 -12 22 -16 30 -3 8
-14 29 -23 46 -15 27 -21 30 -44 23z"/>
</g>
</svg>
